<?xml version="1.0" encoding="UTF-8"?>
<svg id="Layer_1" xmlns="http://www.w3.org/2000/svg" version="1.1" viewBox="0 0 563.77 114.71">
  <!-- Generator: Adobe Illustrator 29.6.1, SVG Export Plug-In . SVG Version: 2.1.1 Build 9)  -->
  <defs>
    <style>
      .st0 {
        fill: #fff;
      }
    </style>
  </defs>
  <g>
    <path class="st0" d="M76.13,98.97H31.41l-7.14,15.6H0L53.39.02h.69l53.46,114.54h-24.34l-7.07-15.6ZM67.39,79.83l-13.59-29.88-13.66,29.88h27.25Z"/>
    <path class="st0" d="M202.88.02h22.46v114.54h-22.46V.02Z"/>
    <path class="st0" d="M312.64,98.97h-44.72l-7.14,15.6h-24.27L289.89.02h.69l53.46,114.54h-24.34l-7.07-15.6ZM303.9,79.83l-13.59-29.88-13.66,29.88h27.25Z"/>
    <path class="st0" d="M532.36,98.97h-44.72l-7.14,15.6h-24.27L509.62.02h.69l53.46,114.54h-24.34l-7.07-15.6ZM523.62,79.83l-13.59-29.88-13.66,29.88h27.25Z"/>
  </g>
  <path class="st0" d="M110.35,93.33l17.64-12.4c4.84,7.76,11.85,11.31,21.32,11.31,10.35,0,17.3-4.22,17.3-10.08,0-8.04-13.15-14.37-24.66-20.09-12.33-6.13-25.88-12.87-25.88-30.38C116.08,12.68,132.15.15,152.31.15c14.99,0,27.38,6.2,32.35,19.48l-16.28,11.38c-3.27-6.54-9.6-9.2-15.73-9.2-8.24,0-14.37,4.77-14.37,10.42,0,6.54,8.31,8.79,20.91,14.71,18.19,8.58,29.63,17.85,29.63,34.74,0,20.03-16.35,32.76-39.85,32.76-17.98,0-31.26-7.49-38.62-21.12Z"/>
  <path class="st0" d="M444.59.02v114.69h-1.03l-65.65-63.87v63.86h-22.23V0h1.1l65.52,63.73V.02h22.3Z"/>
</svg>